FFmpeg version SVN-r25716, Copyright (c) 2000-2010 the FFmpeg developers  built on Nov 10 2010 12:23:18 with gcc 4.1.2 20080704 (Red Hat 4.1.2-48)  configuration: --enable-libmp3lame --enable-shared --disable-mmx --arch=x86_64  libavutil     50.33. 0 / 50.33. 0  libavcore      0.12. 1 /  0.12. 1  libavcodec    52.94. 4 / 52.94. 4  libavformat   52.84. 0 / 52.84. 0  libavdevice   52. 2. 2 / 52. 2. 2  libavfilter    1.59. 0 /  1.59. 0  libswscale     0.12. 0 /  0.12. 0Seems stream 0 codec frame rate differs from container frame rate: 1200.00 (1200/1) -> 10.00 (10/1)Input #0, mov,mp4,m4a,3gp,3g2,mj2, from '/RAID10/data/converted_video_files/8070.mov':  Metadata:    major_brand     : qt      minor_version   : 537199360    compatible_brands: qt    Duration: 00:00:48.00, start: 0.000000, bitrate: 743 kb/s    Stream #0.0(eng): Video: h264, yuv420p, 650x294, 742 kb/s, 10 fps, 10 tbr, 600 tbn, 1200 tbc[buffer @ 0x1ac2c960] w:650 h:294 pixfmt:yuv420pOutput #0, flv, to '/RAID10/data/converted_video_files/8070.flv':  Metadata:    encoder         : Lavf52.84.0    Stream #0.0(eng): Video: flv, yuv420p, 650x294, q=2-31, 600 kb/s, 1k tbn, 24 tbcStream mapping:  Stream #0.0 -> #0.0Press [q] to stop encodingframe=   60 fps=  0 q=13.3 size=     396kB time=5.96 bitrate= 544.9kbits/s    frame=  122 fps=120 q=10.0 size=     723kB time=12.12 bitrate= 488.5kbits/s    frame=  187 fps=123 q=10.0 size=    1107kB time=18.62 bitrate= 487.0kbits/s    frame=  254 fps=125 q=8.0 size=    1532kB time=25.33 bitrate= 495.5kbits/s    frame=  326 fps=129 q=6.7 size=    1988kB time=32.54 bitrate= 500.3kbits/s    frame=  404 fps=133 q=4.9 size=    2468kB time=40.33 bitrate= 501.3kbits/s    frame=  480 fps=137 q=4.7 Lsize=    2968kB time=47.96 bitrate= 506.9kbits/s    video:2960kB audio:0kB global headers:0kB muxing overhead 0.260294%